<?xml version="1.0" encoding="utf-8"?>
<!-- Generator: Adobe Illustrator 26.5.0, SVG Export Plug-In . SVG Version: 6.00 Build 0)  -->
<svg version="1.1" id="Layer_1" xmlns="http://www.w3.org/2000/svg" xmlns:xlink="http://www.w3.org/1999/xlink" x="0px" y="0px"
	 viewBox="0 0 1800 640" style="enable-background:new 0 0 1800 640;" xml:space="preserve">
<style type="text/css">
	.st0{fill:#FFFFFF;}
</style>
<path class="st0" d="M669.93,216.7c-0.83,0.95-1.77,2.46-3.1,3.47c-48.67,37.31-97.34,74.61-146.14,111.74
	c-3.58,2.72-4.15,4.84-2.66,8.99c15.3,42.43,30.32,84.97,45.61,127.41c1.54,4.28,0.66,6.52-2.98,9.05
	c-71.54,49.76-143,99.64-214.47,149.49c-8.57,5.98-8.6,5.97-12.96-3.77c-27.23-60.78-54.48-121.55-81.62-182.37
	c-1.98-4.44-4.68-7.67-8.86-10.27C170.77,385.57,98.9,340.57,26.95,295.7c-3.83-2.39-3.98-4.01-1.17-7.69
	c24.43-31.87,48.62-63.93,72.86-95.94c24.15-31.88,48.32-63.74,72.33-95.72c2.17-2.88,4.03-3.01,7.16-2.05
	c53.82,16.4,107.69,32.66,161.51,49.07c3.35,1.02,5.37,0.58,7.7-2.17c34.4-40.75,68.95-81.38,103.33-122.14
	c2.14-2.53,4.23-2.68,6.99-2.14c49.18,9.68,98.36,19.34,147.54,29.02c7.51,1.48,14.98,3.21,22.53,4.43
	c3.18,0.51,4.37,1.81,5.08,4.92c12.03,52.58,24.21,105.13,36.36,157.68C669.4,213.93,669.57,214.91,669.93,216.7z M553.67,474.57
	c-0.76-0.6-0.96-0.88-1.22-0.95c-40.41-10.34-80.81-20.71-121.27-30.86c-1.53-0.38-4.08,0.8-5.27,2.07
	c-4.2,4.49-9.13,7.4-15.26,7.44c-3.28,0.02-4.51,1.28-5.57,4.2c-19.15,52.83-38.42,105.61-57.64,158.42
	c-0.4,1.09-0.56,2.26-1.05,4.31C416,570.62,484.75,522.66,553.67,474.57z M338.68,620.21c20.39-56.62,40.2-111.71,60.12-166.76
	c0.93-2.57,0.28-3.68-1.62-5.36c-2.45-2.15-4.91-4.73-6.2-7.63c-1.4-3.16-3.09-3.96-6.33-3.99c-41.15-0.42-82.29-0.98-123.44-1.49
	c-1.55-0.02-3.11,0.15-5.33,0.27C283.5,496.97,310.8,557.94,338.68,620.21z M35.12,293.42c70.5,44.08,139.63,87.31,209.19,130.8
	c0.12-1.39,0.26-1.75,0.17-2.03c-15.68-45.81-31.34-91.63-47.2-137.37c-0.49-1.42-2.94-2.84-4.63-3.05
	c-8.4-1.02-14.13-5.39-17.63-12.92c-0.61-1.31-1.09-2.68-1.75-4.32C127.48,274.11,81.98,283.63,35.12,293.42z M178.67,100.93
	c2.68,20.85,5.22,40.76,7.81,60.67c3.25,24.94,6.51,49.87,9.91,74.78c0.2,1.48,1.36,3.32,2.62,4.06c3.53,2.06,7.35,3.62,11.42,5.55
	c42.18-31.72,84.82-63.78,128.36-96.53C284.82,133.1,232.08,117.12,178.67,100.93z M172.5,104.73
	C126.18,165.92,80.81,225.86,35.3,285.98c0.83,0.26,1,0.38,1.14,0.35c44.71-9.67,89.43-19.32,134.11-29.13
	c1.56-0.34,3.36-2.01,4.04-3.52c2.44-5.41,6.14-9.33,11.41-12.08c1.27-0.66,2.16-2.8,2.46-4.4c0.32-1.73-0.24-3.62-0.46-5.44
	c-3.51-29.25-7-58.51-10.55-87.76C175.91,131.34,174.26,118.68,172.5,104.73z M623.16,55.78c-54.88-10.8-108.68-21.4-162.7-32.03
	c0,1.27-0.14,1.81,0.02,2.24c15.95,43.39,31.92,86.77,47.97,130.12c0.38,1.02,1.51,2.16,2.53,2.48c4.8,1.5,9.68,2.74,15.15,4.24
	C557.86,127.83,590.16,92.19,623.16,55.78z M502.57,159.1c-16.09-43.64-32.49-88.13-49.2-133.47
	c-34.01,40.09-67.43,79.48-101.46,119.59c47.07,9.41,93.16,18.63,138.02,27.6C494.52,167.85,498.28,163.76,502.57,159.1z
	 M627.67,60.59c-2.94,3.2-5.19,5.6-7.4,8.05c-11.41,12.58-22.81,25.16-34.21,37.74c-17.99,19.87-35.99,39.72-53.91,59.65
	c-1.04,1.16-2.09,3.07-1.89,4.45c0.55,3.73,1.78,7.35,2.89,11.6c42.51,9.83,85.55,19.79,129.49,29.95
	C650.88,161.1,639.38,111.3,627.67,60.59z M516.07,327.81c47.91-36.69,95.24-72.93,142.89-109.42c-1.16-0.61-1.43-0.84-1.74-0.91
	c-41.04-9.52-82.07-19.07-123.15-28.41c-1.53-0.35-3.76,0.91-5.2,2.02c-2.74,2.09-4.79,5.4-7.78,6.75
	c-3.82,1.73-4.38,4.09-4.39,7.73c-0.1,21.65-0.47,43.29-0.6,64.94C515.98,289.28,516.07,308.05,516.07,327.81z M252.68,424.56
	c27.61-33.27,54.66-65.86,80.72-97.26c-4.51-8.29-8.93-15.65-12.5-23.41c-1.35-2.95-2.61-4.41-5.75-5.08
	c-34.01-7.24-67.97-14.69-102-21.82c-2.35-0.49-5.42,0.57-7.57,1.87c-0.79,0.48-0.31,3.89,0.3,5.73
	c12.89,38.84,25.87,77.64,38.85,116.45C247.25,408.57,249.82,416.09,252.68,424.56z M214.56,250.99c1.43,0.49,1.89,0.69,2.37,0.8
	c33.5,7.25,67.02,14.46,100.5,21.77c2.96,0.65,4.06-0.49,5.12-3.02c5.34-12.77,14.61-21.64,27.43-26.81
	c2.11-0.85,4.29-1.54,6.67-2.39c-4.4-28.95-8.75-57.58-13.23-87.06C300.08,186.81,257.66,218.64,214.56,250.99z M556.88,467.97
	c-15.54-43.6-30.7-86.15-46.07-129.26c-1.75,1.57-2.98,2.6-4.13,3.72c-25.34,24.57-50.63,49.2-76.08,73.66
	c-2.73,2.62-3.47,4.6-1.6,7.99c1.07,1.94,1.53,4.51,1.42,6.75c-0.16,3.24,1.23,4.19,4.11,4.94c24.15,6.29,48.24,12.78,72.37,19.15
	C523.23,459.23,539.57,463.45,556.88,467.97z M490.49,179.61c-46.92-9.38-93.46-18.69-140.76-28.16
	c4.66,30.33,9.14,59.56,13.69,89.17c14.37-1.12,26.61,3.3,37.15,12.14C413.04,245.39,489.43,183.64,490.49,179.61z M388.97,428.98
	c0.87-3.67,3.44-8.06,2.48-11.46c-7.18-25.45-15.02-50.7-22.81-75.98c-0.36-1.18-1.99-2.44-3.27-2.79
	c-8.54-2.39-17.14-4.55-26.87-7.08c-25.15,31.12-51.42,63.64-78.63,97.32C303.64,428.98,345.89,428.98,388.97,428.98z
	 M508.94,328.59c0-43,0-85.3,0-128.25c-1.85,1.36-3.07,2.21-4.23,3.12c-27.74,21.88-55.39,43.86-83.28,65.54
	c-4.59,3.57-7.5,6.51-5.27,12.94c1.29,3.74,0.57,8.24,0.43,12.38c-0.11,3.08-0.76,6.15-1.21,9.52
	C446.48,312.07,477.26,320.21,508.94,328.59z M412.71,309.94c-4.5,8.75-10.42,15.77-18.34,21.11c-0.87,0.59-1.27,2.91-0.91,4.14
	c7.33,24.69,14.76,49.35,22.27,73.98c1.47,4.81,4.91,5.66,8.46,2.3c26.1-24.71,52.19-49.44,78.28-74.17
	c0.78-0.74,1.43-1.61,2.63-2.98C473.94,326.1,443.4,318.04,412.71,309.94z"/>
<path class="st0" d="M711.51,197.64c2.08,0,4.03,0,5.98,0c16.99,0,34-0.39,50.97,0.19c7.02,0.24,14.42,1.42,20.85,4.09
	c22.36,9.29,25.25,37.47,5.72,51.76c-0.76,0.56-1.48,1.17-2.64,2.09c1.78,0.85,3.08,1.47,4.38,2.08
	c12.35,5.81,18.24,15.55,17.73,29.18c-0.51,13.41-6.98,23.11-19.5,27.46c-7.88,2.74-16.47,4.34-24.81,4.66
	c-18.13,0.69-36.31,0.15-54.47,0.29c-3.32,0.02-4.72-0.72-4.71-4.39c0.11-37.98,0.07-75.97,0.09-113.95
	C711.11,200.13,711.33,199.16,711.51,197.64z M737.5,295.52c12.21,0,24.13,0.04,36.05-0.04c1.63-0.01,3.3-0.47,4.88-0.95
	c6.94-2.12,9.97-6.74,9.23-13.93c-0.6-5.86-5.01-10.4-12.42-10.79c-12.26-0.65-24.57-0.41-36.86-0.51c-0.25,0-0.5,0.37-0.88,0.67
	C737.5,278.29,737.5,286.7,737.5,295.52z M737.48,247.21c11.64-0.53,22.75-0.47,33.71-1.75c6.85-0.8,9.9-5.55,9.84-11.77
	c-0.06-6.11-3.44-11.04-10.17-11.52c-10.98-0.79-22.07-0.21-33.38-0.21C737.48,229.86,737.48,237.92,737.48,247.21z"/>
<path class="st0" d="M1108.97,357.58c7.59,0,14.75-0.21,21.88,0.15c1.73,0.09,3.83,1.69,4.99,3.19
	c16.64,21.66,33.15,43.42,49.69,65.15c1.26,1.65,2.54,3.29,4.81,4.56c0-24.18,0-48.36,0-72.79c8.96,0,17.36,0,26.07,0
	c0,40.41,0,80.63,0,121.49c-7.08,0-14.04,0.22-20.96-0.18c-1.5-0.09-3.12-2.23-4.27-3.73c-17.32-22.6-34.57-45.26-51.85-67.9
	c-0.98-1.28-2.03-2.5-4.05-4.97c0,26.36,0,51.32,0,76.54c-9.17,0-17.57,0-26.33,0C1108.97,438.64,1108.97,398.44,1108.97,357.58z"/>
<path class="st0" d="M1748.43,276.07c9.7,14.23,19.3,28.31,29.52,43.29c-10.54,0-19.96,0.13-29.36-0.14
	c-1.38-0.04-3.08-1.71-4.01-3.06c-7.33-10.72-14.4-21.62-21.85-32.26c-1.18-1.68-3.79-3.09-5.85-3.26
	c-5.45-0.45-10.96-0.15-17.2-0.15c0,12.93,0,25.63,0,38.59c-9.31,0-17.87,0-26.73,0c0-40.48,0-80.68,0-121.44c4.17,0,8.13,0,12.08,0
	c14.49,0,28.98-0.11,43.47,0.06c4.64,0.05,9.35,0.41,13.88,1.36c18.46,3.89,29.5,15.54,31.48,32.78
	c2.28,19.88-5.33,34.36-22.42,42.69C1750.55,274.96,1749.67,275.43,1748.43,276.07z M1699.96,222.23c0,11.61,0,22.83,0,34.2
	c10.53,0,20.7,0.49,30.79-0.14c10.17-0.63,16.19-7.4,16.3-16.79c0.11-9.69-5.34-16.29-15.81-17.1
	C1721.01,221.61,1710.67,222.23,1699.96,222.23z"/>
<path class="st0" d="M1453.42,195.63c36.62,0.08,64.2,27.14,64.15,62.96c-0.05,35.52-28.49,62.98-65.1,62.86
	c-36.56-0.12-64.31-27.39-64.18-63.08C1388.42,222.69,1416.6,195.54,1453.42,195.63z M1489.52,259.08
	c0.11-21.96-15.5-38.55-36.46-38.75c-20.67-0.2-36.53,15.95-36.66,37.32c-0.13,22.09,15.35,38.76,36.2,38.98
	C1473.6,296.84,1489.4,280.76,1489.52,259.08z"/>
<path class="st0" d="M1351.91,372.53c-5.46,6.59-10.94,13.21-16.63,20.08c-8.49-7.3-17.68-11.83-28.67-12.33
	c-12.88-0.58-23.09,4.26-30.6,14.6c-16.71,22.99-4.64,56.36,22.25,61.33c10.1,1.87,20,0.52,29.01-4.67
	c1.59-0.92,2.93-3.43,3.14-5.34c0.47-4.27,0.15-8.62,0.15-13.64c-8.91,0-17.61,0-26.61,0c0-7.94,0-15.19,0-22.86
	c17.39,0,34.74,0,52.61,0c0,1.79,0,3.41,0,5.03c0,14-0.14,28,0.09,41.99c0.07,3.92-1.09,6.43-4.29,8.71
	c-21.27,15.12-44.46,20.16-69.6,12.55c-27.23-8.24-43.03-32.21-42.11-62.53c0.83-27.33,20.12-51.52,46.98-57.74
	c21.34-4.94,41.72-2.42,59.95,10.85c1.08,0.78,2.12,1.62,3.14,2.48C1351.08,371.33,1351.32,371.78,1351.91,372.53z"/>
<path class="st0" d="M839.71,357.76c8.9,0,17.36,0,26.48,0c0,15.89,0,31.62,0,47.62c16.59,0,32.52,0,49.06,0
	c0-15.77,0-31.49,0-47.51c9.19,0,17.77,0,26.71,0c0,40.3,0,80.53,0,121.12c-8.69,0-17.25,0-26.36,0c0-15.97,0-31.87,0-48.13
	c-16.59,0-32.65,0-49.31,0c0,15.99,0,31.89,0,48.13c-9.16,0-17.71,0-26.58,0C839.71,438.66,839.71,398.42,839.71,357.76z"/>
<path class="st0" d="M836.84,197.84c30.6,0,60.7,0,91.16,0c0,7.76,0,15.32,0,23.6c-21.45,0-42.81,0-64.47,0c0,8.46,0,16.21,0,24.61
	c18.86,0,37.58,0,56.62,0c0,8.06,0,15.48,0,23.57c-18.61,0-37.31,0-56.46,0c0,8.84,0,17.01,0,25.75c21.69,0,43.27,0,65.18,0
	c0,8.12,0,15.69,0,23.63c-30.67,0-61.18,0-92.02,0C836.84,278.65,836.84,238.45,836.84,197.84z"/>
<path class="st0" d="M1055.36,319.11c-8.63,0-17.04,0-26.1,0c0-16.09,0-31.98,0-48.22c-16.7,0-32.76,0-49.37,0
	c0,15.91,0,31.82,0,48.1c-9.09,0-17.65,0-26.54,0c0-40.29,0-80.52,0-121.06c8.71,0,17.25,0,26.27,0c0,15.81,0,31.4,0,47.36
	c16.53,0,32.59,0,49.34,0c0-15.66,0-31.36,0-47.36c9.1,0,17.53,0,26.41,0C1055.36,238.23,1055.36,278.54,1055.36,319.11z"/>
<path class="st0" d="M1409.12,381.33c0,8.66,0,16.4,0,24.76c19.05,0,37.79,0,56.78,0c0,8.04,0,15.46,0,23.47
	c-18.82,0-37.54,0-56.68,0c0,8.78,0,16.97,0,25.72c21.73,0,43.29,0,65.2,0c0,8.13,0,15.71,0,23.68c-30.52,0-61.04,0-91.84,0
	c0-40.35,0-80.57,0-121.09c30.34,0,60.54,0,91.02,0c0,7.78,0,15.35,0,23.45C1452.08,381.33,1430.83,381.33,1409.12,381.33z"/>
<path class="st0" d="M1539.45,197.83c9.21,0,17.67,0,26.91,0c0,1.84,0,3.59,0,5.35c0,20.16-0.04,40.32,0.04,60.48
	c0.02,3.98,0.13,8.03,0.88,11.91c2.75,14.25,11.97,21.35,26.6,20.86c13.7-0.46,22.42-8.45,24.29-22.46c0.44-3.29,0.5-6.65,0.51-9.97
	c0.04-20.16,0.02-40.32,0.02-60.48c0-1.79,0-3.58,0-5.62c9.04,0,17.48,0,26.34,0c0.14,1.17,0.41,2.43,0.41,3.68
	c0.01,22.83,0.13,45.65-0.14,68.48c-0.07,5.43-0.97,10.98-2.37,16.24c-5.19,19.59-19.9,32.23-40.3,34.07
	c-8.04,0.72-16.41,0.77-24.32-0.64c-21.69-3.87-34.51-17.68-37.83-39.53c-0.7-4.59-0.99-9.29-1.01-13.94
	c-0.11-20.99-0.05-41.99-0.05-62.98C1539.45,201.65,1539.45,200.01,1539.45,197.83z"/>
<path class="st0" d="M1202.94,319.36c-8.51,0-16.66,0.13-24.8-0.14c-1.29-0.04-3.09-1.67-3.68-3c-2.99-6.68-5.78-13.46-8.39-20.29
	c-1.03-2.69-2.34-3.92-5.41-3.89c-14.66,0.15-29.32,0.13-43.98,0.01c-2.8-0.02-4.15,1-5.12,3.55c-2.6,6.84-5.31,13.65-8.31,20.32
	c-0.65,1.46-2.62,3.23-4.04,3.28c-7.8,0.32-15.62,0.15-24.26,0.15c0.77-2.16,1.28-3.83,1.96-5.43
	c15.76-37.07,31.65-74.09,47.17-111.27c2.03-4.86,4.48-6.55,9.52-6.07c4.79,0.45,9.67-0.13,14.48,0.23
	c1.57,0.12,3.85,1.38,4.43,2.71c16.82,39.15,33.48,78.38,50.14,117.6C1202.82,317.56,1202.78,318.08,1202.94,319.36z
	 M1138.76,229.09c-5.55,13.56-10.66,26.03-15.9,38.82c11.01,0,21.14,0,31.84,0C1149.38,254.95,1144.31,242.59,1138.76,229.09z"/>
<path class="st0" d="M1089.41,479.34c-8.58,0-16.87,0.14-25.15-0.15c-1.26-0.04-2.96-1.84-3.57-3.22
	c-2.89-6.53-5.6-13.16-8.11-19.85c-1.15-3.07-2.68-4.34-6.17-4.29c-14.32,0.22-28.64,0.17-42.96,0.03
	c-2.95-0.03-4.47,0.85-5.52,3.68c-2.57,6.85-5.6,13.52-8.22,20.35c-0.97,2.53-2.23,3.6-5.08,3.52c-7.6-0.21-15.2-0.07-23.43-0.07
	c0.78-2.12,1.27-3.66,1.9-5.13c15.94-37.52,31.95-75.01,47.77-112.58c1.58-3.75,3.47-5.39,7.66-5.06c5.3,0.41,10.66-0.11,15.97,0.23
	c1.56,0.1,3.84,1.4,4.42,2.74c16.81,39.14,33.46,78.35,50.1,117.55C1089.25,477.66,1089.24,478.33,1089.41,479.34z M1025.11,388.95
	c-5.58,13.65-10.68,26.14-15.91,38.91c10.99,0,21.11,0,31.84,0C1035.73,414.88,1030.66,402.5,1025.11,388.95z"/>
<path class="st0" d="M816.91,374.56c-5.48,6.32-11.01,12.69-16.84,19.41c-10.73-9.82-22.68-15.68-37.38-13.18
	c-8.21,1.4-14.93,5.55-20.2,11.95c-12.49,15.18-11.48,39.74,2.16,53.69c14.29,14.61,33.77,13.37,55.75-3.37
	c5.61,5.59,11.19,11.15,16.8,16.75c-18.82,25.71-63.94,29.05-90.39,6.44c-26.89-22.99-28.38-67.01-3.14-92.53
	C747.91,349.22,794.85,349.45,816.91,374.56z"/>
<path class="st0" d="M1255.99,282.92c5.28-14.19,10.25-27.56,15.22-40.93c4.98-13.42,10.08-26.8,14.85-40.29
	c1.15-3.26,2.72-4.27,6.09-4.16c7.81,0.26,15.63,0.08,24.19,0.08c-0.7,1.97-1.17,3.48-1.76,4.95
	c-15.11,37.69-30.27,75.35-45.27,113.08c-1.37,3.45-3.06,4.98-6.89,4.71c-4.97-0.35-10.01,0.17-14.97-0.22
	c-1.7-0.13-4.19-1.51-4.78-2.94c-15.85-39-31.49-78.08-47.15-117.16c-0.23-0.58-0.25-1.25-0.46-2.4c9.22,0,18.17-0.15,27.1,0.18
	c1.21,0.05,2.81,2.37,3.4,3.95c9.43,25.08,18.72,50.2,28.06,75.31C1254.24,278.78,1254.97,280.43,1255.99,282.92z"/>
<path class="st0" d="M1362.91,319.12c-8.71,0-17.14,0-26.01,0c0-40.29,0-80.5,0-121.1c8.41,0,16.98,0,26.01,0
	C1362.91,238.1,1362.91,278.31,1362.91,319.12z"/>
<path class="st0" d="M1166.22,563.25c2.32,1.02,4.18,1.74,5.94,2.64c12.72,6.5,14.43,23.38,2.75,31.63
	c-4.16,2.94-9.66,5.18-14.68,5.48c-12.93,0.76-25.94,0.25-39.39,0.25c0-25.83,0-51.68,0-77.3c13.52,0,26.99-0.72,40.34,0.26
	c8.66,0.63,15.31,5.98,16.82,15.32c1.46,9.05-2.31,15.87-10.24,20.42C1167.35,562.19,1167.02,562.57,1166.22,563.25z
	 M1143.86,566.31c-0.01,0.13-0.02,0.27-0.03,0.4c-4.65,0-9.3,0.08-13.95-0.03c-2.45-0.06-3.65,0.64-3.61,3.36
	c0.12,8.3-0.06,16.61,0.16,24.91c0.03,1.11,1.64,3.13,2.51,3.13c11.11-0.05,22.28,0.21,33.32-0.86c9.02-0.87,14.34-7.38,14.34-15.13
	c0-7.48-4.72-12.74-13.9-14.29C1156.5,566.75,1150.14,566.77,1143.86,566.31z M1126.59,560.77c10.54,0,20.85,0.7,31.02-0.2
	c9.54-0.85,15-7.65,14.69-15.87c-0.3-7.86-6.22-13.41-16.01-13.89c-9.45-0.47-18.95-0.12-28.43-0.09c-0.42,0-0.84,0.43-1.27,0.67
	C1126.59,541.22,1126.59,550.98,1126.59,560.77z"/>
<path class="st0" d="M1302.34,571.03c0,11.47,0,21.74,0,32.28c-1.97,0-3.54,0-5.43,0c0-25.92,0-51.64,0-77.72
	c0.93-0.16,1.86-0.45,2.79-0.45c10.65,0,21.32-0.25,31.96,0.21c4.55,0.2,9.29,1.3,13.48,3.08c8.28,3.5,12.49,10.23,12.5,19.29
	c0.01,9.08-4.37,15.54-12.53,19.31c-2.97,1.37-6.19,2.2-9.96,3.5c8.33,10.79,16.5,21.37,24.75,32.05c-5.44,1.84-6.24,1.63-9.36-2.42
	c-6.61-8.57-13.31-17.07-19.74-25.76c-1.91-2.59-3.94-3.53-7.09-3.43C1316.77,571.18,1309.82,571.03,1302.34,571.03z
	 M1302.79,565.47c10.56,0,20.53,0.15,30.49-0.1c2.74-0.07,5.58-1.04,8.14-2.14c7.11-3.05,10.78-9.18,10.35-16.62
	c-0.41-7.11-4.6-13.41-12.26-14.44c-12.05-1.61-24.31-1.57-36.71-2.23C1302.79,542.56,1302.79,553.79,1302.79,565.47z"/>
<path class="st0" d="M833.04,604.93c-22.56-0.22-39.17-17.91-38.83-41.35c0.33-22.82,17.73-40.16,40-39.86
	c22.32,0.3,39.07,17.88,38.98,40.88C873.1,587.43,855.46,605.14,833.04,604.93z M866.93,565.08c0.42-19.96-13.96-35.7-32.89-36.02
	c-18.52-0.31-33.26,14.38-33.65,33.54c-0.43,20.78,13.32,36.5,32.32,36.96C851.98,600.03,866.51,585.39,866.93,565.08z"/>
<path class="st0" d="M1276.8,564.42c0,22.84-17.07,40.41-39.35,40.51c-22.62,0.1-39.56-17.31-39.6-40.68
	c-0.03-22.68,17.21-40.42,39.41-40.55C1259.83,523.57,1276.8,541.04,1276.8,564.42z M1270.73,564.48
	c0.03-20.04-14.58-35.47-33.55-35.42c-18.81,0.05-33.25,15.3-33.27,35.14c-0.02,19.9,14.71,35.39,33.63,35.38
	C1256.42,599.56,1270.7,584.47,1270.73,564.48z"/>
<path class="st0" d="M866.46,80.9c18.57,0,36.67,0,55.26,0c0.08,1.65,0.16,3.2,0.27,5.29c-16.68,0-32.91,0-49.59,0
	c0,10.35,0,20.21,0,30.75c5.47,0,10.91,0,16.35,0c7.99,0,15.99,0.11,23.97-0.05c4.13-0.08,4.93,1.65,3.47,5.64
	c-14.51,0-29.09,0-43.95,0c0,10.58,0,20.65,0,31.19c16.67,0,33.09,0,49.98,0c0.11,1.97,0.2,3.52,0.31,5.41c-18.84,0-37.23,0-56.06,0
	C866.46,133.11,866.46,107.26,866.46,80.9z"/>
<path class="st0" d="M1694.1,561.31c1.28,4.51-0.35,5.49-3.84,5.45c-11.49-0.15-22.98-0.05-34.47-0.05c-1.8,0-3.6,0-5.79,0
	c0,10.52,0,20.59,0,31.34c16.46,0,33,0,49.79,0c0.29,2.85,1.56,5.51-2.37,5.53c-17.64,0.07-35.27,0.03-53.33,0.03
	c0-26.19,0-52.04,0-78.19c18.4,0,36.63,0,55.01,0c1.23,3.57,0.55,5.24-3.61,5.19c-13.32-0.16-26.64-0.06-39.96-0.06
	c-1.78,0-3.55,0-5.62,0c0,10.41,0,20.17,0,30.78C1664.73,561.31,1679.57,561.31,1694.1,561.31z"/>
<path class="st0" d="M842.43,159.19c-1.74,0.08-3.17,0.14-5.38,0.24c0-12.29,0-24.31,0-36.58c-17.03,0-33.3,0-50.24,0
	c0,11.99,0,24.03,0,36.31c-2.25,0-3.83,0-5.75,0c0-26.03,0-51.92,0-78.18c1.68-0.11,3.27-0.21,5.34-0.35c0,12.04,0,23.8,0,36.02
	c16.97,0,33.47,0,50.52,0c0-11.93,0-23.7,0-35.68c2.11,0,3.67,0,5.5,0C842.43,107.14,842.43,133.02,842.43,159.19z"/>
<path class="st0" d="M1449.39,603.09c-4.59,1.5-6.68-0.14-8.12-3.93c-1.82-4.81-4.33-9.35-6.32-14.1c-1.02-2.42-2.25-3.55-5.12-3.51
	c-12.98,0.18-25.96,0.19-38.94,0c-3.06-0.04-4.44,1.15-5.52,3.76c-1.97,4.76-4.41,9.33-6.28,14.13c-1.39,3.56-3.39,5.14-7.44,3.69
	c0.26-0.87,0.42-1.81,0.8-2.64c11.14-24.16,22.26-48.33,33.57-72.41c0.73-1.55,2.88-3.18,4.51-3.34c1.3-0.13,3.45,1.64,4.12,3.07
	c11.38,24.23,22.59,48.55,33.82,72.85C1448.82,601.39,1449.05,602.17,1449.39,603.09z M1430.73,575.96
	c-6.86-15.09-13.43-29.52-20.44-44.92c-7.07,15.49-13.65,29.9-20.51,44.92C1403.68,575.96,1416.73,575.96,1430.73,575.96z"/>
<path class="st0" d="M1103.42,603.1c-4.25,1.32-6.94,0.37-7.97-3.78c-0.04-0.16-0.14-0.3-0.21-0.45c-2.74-5.67-4.1-13.42-8.61-16.4
	c-4.31-2.85-11.9-0.79-18.06-0.82c-7.99-0.04-15.98-0.18-23.96,0.13c-1.66,0.06-3.95,1.53-4.76,3.01
	c-2.62,4.81-4.89,9.84-6.87,14.95c-1.35,3.5-3.41,4.62-7.31,3.46c0.37-1.15,0.62-2.35,1.13-3.44c11-23.86,21.99-47.72,33.16-71.51
	c0.74-1.59,2.87-3.45,4.4-3.48c1.5-0.03,3.75,1.77,4.48,3.32c11.32,24.08,22.45,48.24,33.61,72.4
	C1102.77,601.21,1103.01,602,1103.42,603.1z M1043.83,575.85c14.03,0,27.16,0,40.88,0c-6.84-15.03-13.41-29.46-20.39-44.79
	C1057.26,546.48,1050.71,560.82,1043.83,575.85z"/>
<path class="st0" d="M780.33,587.39c1.12,1.26,2.11,2.36,3.07,3.44c-12.12,16.36-39.28,18.89-55.59,5.31
	c-17.53-14.6-19.18-43.09-3.48-59.98c15.51-16.69,42.19-16.71,58.8,0.29c-1.18,1.27-2.38,2.56-3.88,4.17
	c-8.93-8.68-19.17-12.97-31.45-11.15c-8.1,1.2-14.76,5.01-19.97,11.29c-11.55,13.88-10.7,36.07,1.83,48.98
	C742.92,603.38,761.02,602.73,780.33,587.39z"/>
<path class="st0" d="M1553.39,525.77c4.55-1.66,6.52-0.05,8.09,3.72c8.57,20.59,17.39,41.08,26.12,61.6
	c0.71,1.68,1.46,3.33,2.52,5.74c1.02-2.2,1.8-3.77,2.49-5.39c8.91-20.8,17.89-41.57,26.63-62.44c1.57-3.75,3.58-4.73,7.63-3.17
	c-1.02,2.36-1.98,4.61-2.96,6.85c-9.79,22.42-19.53,44.86-29.48,67.21c-0.78,1.76-2.83,3.72-4.56,4.01
	c-1.15,0.19-3.36-2.16-4.1-3.82c-10.33-23.27-20.49-46.62-30.68-69.96C1554.52,528.77,1554.02,527.38,1553.39,525.77z"/>
<path class="st0" d="M730.07,86.44c-9.42,0-18.02,0-27.09,0c-0.15-1.93-0.28-3.48-0.43-5.4c20.27,0,40.15,0,60.38,0
	c0,1.64,0,3.18,0,5.25c-8.96,0-17.71,0-27.08,0c0,24.55,0,48.59,0,72.88c-2.2,0-3.76,0-5.78,0
	C730.07,135.02,730.07,111.1,730.07,86.44z"/>
<path class="st0" d="M1483.84,530.53c0,24.62,0,48.53,0,72.75c-2.11,0-3.68,0-5.78,0c0-24.06,0-47.98,0-72.75
	c-8.08,0-15.67-0.13-23.25,0.06c-3.57,0.09-5-1.07-3.8-5.11c1.24-0.12,2.67-0.36,4.1-0.36c17.16-0.03,34.31-0.05,51.47,0.03
	c1.87,0.01,4.67-1.09,4.7,2.62c0.03,3.64-2.66,2.72-4.62,2.74C1499.33,530.58,1492.02,530.53,1483.84,530.53z"/>
<path class="st0" d="M893.15,602.87c0-25.59,0-51.33,0-77.48c1.68-0.1,3.27-0.19,5.49-0.32c0,24.41,0,48.46,0,73
	c15.52,0,30.45,0,45.62,0c0.54,2.85,1.85,5.51-2.46,5.51c-15.83,0-31.65-0.07-47.48-0.13C894.03,603.45,893.74,603.18,893.15,602.87
	z"/>
<path class="st0" d="M968.14,598.28c15.79,0,30.71,0,46.02,0c0.03,2.66,1.32,5.3-2.65,5.31c-16.12,0.04-32.24,0.01-48.76,0.01
	c0-26.27,0-52.12,0-78.17c1.72,0,3.3,0,5.39,0C968.14,549.64,968.14,573.55,968.14,598.28z"/>
<path class="st0" d="M1535.28,603.37c-2.03,0-3.48,0-5.28,0c0-25.93,0-51.64,0-77.79c1.68,0,3.35,0,5.28,0
	C1535.28,551.47,1535.28,577.18,1535.28,603.37z"/>
</svg>
